<svg width="38" height="35" viewBox="0 0 38 35" fill="none" xmlns="http://www.w3.org/2000/svg">
<path d="M36.8125 0H32.0625C31.7476 0 31.4455 0.125111 31.2228 0.347811C31.0001 0.57051 30.875 0.872555 30.875 1.1875V2.375H22.5625V1.1875C22.5625 0.872555 22.4374 0.57051 22.2147 0.347811C21.992 0.125111 21.6899 0 21.375 0H16.625C16.3101 0 16.008 0.125111 15.7853 0.347811C15.5626 0.57051 15.4375 0.872555 15.4375 1.1875V2.375H7.125V1.1875C7.125 0.872555 6.99989 0.57051 6.77719 0.347811C6.55449 0.125111 6.25244 0 5.9375 0H1.1875C0.872555 0 0.57051 0.125111 0.347811 0.347811C0.125111 0.57051 0 0.872555 0 1.1875L0 5.9375C0 6.25244 0.125111 6.55449 0.347811 6.77719C0.57051 6.99989 0.872555 7.125 1.1875 7.125H5.9375C6.25244 7.125 6.55449 6.99989 6.77719 6.77719C6.99989 6.55449 7.125 6.25244 7.125 5.9375V4.75H15.4375V5.9375C15.4375 6.25244 15.5626 6.55449 15.7853 6.77719C16.008 6.99989 16.3101 7.125 16.625 7.125H21.375C21.6899 7.125 21.992 6.99989 22.2147 6.77719C22.4374 6.55449 22.5625 6.25244 22.5625 5.9375V5.10625C25.9112 5.9375 31.6112 8.91813 32.0625 19H30.875C30.5601 19 30.258 19.1251 30.0353 19.3478C29.8126 19.5705 29.6875 19.8726 29.6875 20.1875V24.9375C29.6875 25.2524 29.8126 25.5545 30.0353 25.7772C30.258 25.9999 30.5601 26.125 30.875 26.125H35.625C35.9399 26.125 36.242 25.9999 36.4647 25.7772C36.6874 25.5545 36.8125 25.2524 36.8125 24.9375V20.1875C36.8125 19.8726 36.6874 19.5705 36.4647 19.3478C36.242 19.1251 35.9399 19 35.625 19H34.4375C34.1406 11.0675 30.875 6.91125 27.5025 4.75H30.875V5.9375C30.875 6.25244 31.0001 6.55449 31.2228 6.77719C31.4455 6.99989 31.7476 7.125 32.0625 7.125H36.8125C37.1274 7.125 37.4295 6.99989 37.6522 6.77719C37.8749 6.55449 38 6.25244 38 5.9375V1.1875C38 0.872555 37.8749 0.57051 37.6522 0.347811C37.4295 0.125111 37.1274 0 36.8125 0ZM4.75 4.75H2.375V2.375H4.75V4.75ZM20.1875 4.75H17.8125V2.375H20.1875V4.75ZM32.0625 21.375H34.4375V23.75H32.0625V21.375ZM35.625 4.75H33.25V2.375H35.625V4.75Z" fill="#6854FC"/>
<path d="M11.7442 8.96541C11.6457 8.76781 11.4941 8.60157 11.3063 8.48537C11.1186 8.36917 10.9022 8.30762 10.6814 8.30762C10.4606 8.30762 10.2442 8.36917 10.0564 8.48537C9.8687 8.60157 9.71707 8.76781 9.61858 8.96541L2.49358 23.2154C2.38371 23.4381 2.34638 23.6895 2.38686 23.9345C2.42733 24.1795 2.54356 24.4056 2.71921 24.581L4.33421 26.196C4.10692 26.281 3.9111 26.4335 3.7731 26.633C3.6351 26.8326 3.56154 27.0697 3.56233 27.3123V29.6873C3.56233 30.0022 3.68744 30.3043 3.91014 30.527C4.13284 30.7497 4.43489 30.8748 4.74983 30.8748H5.93733V34.4373H8.31233V30.8748H13.0623V34.4373H15.4373V30.8748H16.6248C16.9398 30.8748 17.2418 30.7497 17.4645 30.527C17.6872 30.3043 17.8123 30.0022 17.8123 29.6873V27.3123C17.8098 27.0703 17.7334 26.8348 17.5933 26.6374C17.4532 26.4401 17.2562 26.2902 17.0286 26.2079L18.6436 24.5929C18.8192 24.4174 18.9355 24.1913 18.9759 23.9464C19.0164 23.7014 18.9791 23.4499 18.8692 23.2273L11.7442 8.96541ZM13.763 26.1248H7.61171L4.99921 23.5123L9.49983 14.5348V21.3748H11.8748V14.5348L16.3636 23.5242L13.763 26.1248Z" fill="#6854FC"/>
</svg>
