<svg width="16" height="14" viewBox="0 0 16 14" fill="none" xmlns="http://www.w3.org/2000/svg">
<path d="M15.9991 2.35384C15.3991 2.61922 14.7658 2.78508 14.0992 2.88459C14.7658 2.48653 15.2991 1.85625 15.5325 1.09329C14.8992 1.45819 14.1992 1.72356 13.4326 1.88942C12.8326 1.25915 11.966 0.861084 11.0327 0.861084C9.23282 0.861084 7.76623 2.32066 7.76623 4.11197C7.76623 4.37735 7.79957 4.60955 7.86623 4.84176C5.16638 4.70907 2.73318 3.41535 1.09994 1.42501C0.833287 1.9226 0.666629 2.45335 0.666629 3.05046C0.666629 4.17831 1.23326 5.17348 2.13321 5.77058C1.59991 5.73741 1.09994 5.60472 0.633298 5.37252V5.40569C0.633298 6.99796 1.76657 8.32485 3.26648 8.6234C2.99983 8.68974 2.69985 8.72292 2.39987 8.72292C2.19988 8.72292 1.96656 8.68974 1.76657 8.65657C2.19988 9.95029 3.39981 10.9123 4.83306 10.9123C3.69979 11.7748 2.29987 12.3055 0.766624 12.3055C0.499972 12.3055 0.23332 12.3055 0 12.2724C1.46658 13.2012 3.16649 13.7319 5.03305 13.7319C11.066 13.7319 14.3659 8.75609 14.3659 4.44369C14.3659 4.311 14.3659 4.14514 14.3659 4.01245C14.9992 3.58121 15.5658 3.01728 15.9991 2.35384Z" fill="white"/>
</svg>
