<svg width="36" height="36" viewBox="0 0 36 36" fill="none" xmlns="http://www.w3.org/2000/svg">
<path d="M20.9949 9.3301V1.33787C20.9949 0.922516 20.8094 0.550887 20.5172 0.306048C20.4527 0.253583 20.3838 0.205489 20.3111 0.161768C20.1256 0.0612096 19.9105 0 19.6824 0H1.31245C0.589526 0 0 0.59898 0 1.33787V34.6665C0 35.405 0.589526 36 1.31245 36H19.6824C20.4096 36 20.9953 35.4054 20.9953 34.6665V24.8642H19.1364V29.4987H1.85894V2.16857H19.1359V9.3301H20.9949ZM10.4953 30.666C11.5409 30.666 12.3843 31.5273 12.3843 32.5858C12.3843 33.6439 11.5409 34.5008 10.4953 34.5008C9.45393 34.5008 8.61052 33.6439 8.61052 32.5858C8.61052 31.5273 9.45393 30.666 10.4953 30.666Z" fill="#6153CD"/>
<path d="M14.3506 15.8316V21.782C14.3506 22.3019 13.9375 22.726 13.4254 22.726H7.56888C7.05681 22.726 6.6394 22.3019 6.6394 21.782V15.8316C6.6394 15.3113 7.05681 14.8872 7.56888 14.8872H13.4254C13.9375 14.8872 14.3506 15.3113 14.3506 15.8316Z" fill="#6153CD"/>
<path d="M36.0001 6.2959V14.1132C36.0001 14.7997 35.4532 15.3549 34.7823 15.3549H30.7762V11.8616C30.7762 10.4669 29.6573 9.33015 28.2847 9.33015H25.8706V6.2959C25.8706 5.61385 26.4171 5.05859 27.0884 5.05859H34.7823C35.4536 5.05859 36.0001 5.61385 36.0001 6.2959Z" fill="#6153CD"/>
<path d="M29.915 11.8616V19.95H26.9846C25.9992 19.95 25.1988 20.7676 25.1988 21.7688V23.9899H17.9782C17.0745 23.9899 16.3473 23.251 16.3473 22.3328V11.8616C16.3473 10.9478 17.0745 10.2046 17.9782 10.2046H28.2841C29.1835 10.2046 29.915 10.9478 29.915 11.8616Z" fill="#6153CD"/>
<path d="M33.7664 21.7686V27.719C33.7664 28.2393 33.3533 28.6634 32.8413 28.6634H26.9847C26.4727 28.6634 26.0596 28.2393 26.0596 27.719V21.7686C26.0596 21.2483 26.4727 20.8242 26.9847 20.8242H32.8413C33.3533 20.8242 33.7664 21.2483 33.7664 21.7686Z" fill="#6153CD"/>
</svg>
