<svg width="21" height="20" viewBox="0 0 21 20" fill="none" xmlns="http://www.w3.org/2000/svg">
<path d="M10.4271 1.7394C13.0169 1.7394 13.3236 1.74906 14.3466 1.79548C14.9617 1.80297 15.571 1.91538 16.148 2.12783C16.5663 2.28841 16.9463 2.5344 17.2634 2.84997C17.5805 3.16554 17.8277 3.54369 17.989 3.96008C18.2025 4.53427 18.3154 5.14063 18.3229 5.75281C18.3691 6.77098 18.3793 7.07621 18.3793 9.65359C18.3793 12.231 18.3696 12.5362 18.3229 13.5544C18.3154 14.1666 18.2025 14.7729 17.989 15.3471C17.8277 15.7635 17.5805 16.1416 17.2634 16.4572C16.9463 16.7728 16.5663 17.0188 16.148 17.1794C15.571 17.3918 14.9617 17.5042 14.3466 17.5117C13.324 17.5577 13.0173 17.5678 10.4271 17.5678C7.8369 17.5678 7.53022 17.5581 6.50762 17.5117C5.8925 17.5042 5.28323 17.3918 4.70629 17.1794C4.2879 17.0188 3.90793 16.7728 3.59085 16.4572C3.27377 16.1416 3.02659 15.7635 2.86524 15.3471C2.65178 14.7729 2.53883 14.1666 2.5313 13.5544C2.48511 12.5362 2.47495 12.231 2.47495 9.65359C2.47495 7.07621 2.48465 6.77098 2.5313 5.75281C2.53883 5.14063 2.65178 4.53427 2.86524 3.96008C3.02659 3.54369 3.27377 3.16554 3.59085 2.84997C3.90793 2.5344 4.2879 2.28841 4.70629 2.12783C5.28323 1.91538 5.8925 1.80297 6.50762 1.79548C7.53068 1.74952 7.83737 1.7394 10.4271 1.7394ZM10.4271 0C7.79441 0 7.46278 0.0110321 6.42817 0.0579188C5.62314 0.0738547 4.82665 0.225553 4.07259 0.50656C3.42573 0.749114 2.83983 1.12922 2.35578 1.62035C1.86185 2.10226 1.4796 2.68568 1.23573 3.32987C0.953372 4.08033 0.800947 4.87302 0.784934 5.6742C0.738746 6.70295 0.727661 7.033 0.727661 9.65313C0.727661 12.2733 0.738746 12.6033 0.785858 13.633C0.80187 14.4342 0.954296 15.2269 1.23665 15.9773C1.48025 16.6214 1.86218 17.2048 2.35578 17.6868C2.8401 18.1781 3.42632 18.5582 4.07351 18.8006C4.82758 19.0816 5.62406 19.2333 6.4291 19.2493C7.46371 19.2952 7.79395 19.3072 10.428 19.3072C13.0621 19.3072 13.3924 19.2962 14.427 19.2493C15.232 19.2333 16.0285 19.0816 16.7826 18.8006C17.4267 18.5521 18.0116 18.1726 18.5 17.6863C18.9883 17.2 19.3693 16.6176 19.6185 15.9764C19.9009 15.2259 20.0533 14.4333 20.0693 13.6321C20.1155 12.6033 20.1266 12.2733 20.1266 9.65313C20.1266 7.033 20.1155 6.70295 20.0684 5.67329C20.0524 4.8721 19.8999 4.07941 19.6176 3.32895C19.374 2.68485 18.9921 2.10143 18.4985 1.61943C18.0141 1.12819 17.4279 0.748076 16.7807 0.50564C16.0267 0.224633 15.2302 0.0729354 14.4251 0.0569995C13.3915 0.0110322 13.0598 0 10.4271 0Z" fill="white"/>
<path d="M10.4254 4.69629C9.44023 4.69629 8.47723 4.98702 7.65812 5.53171C6.83902 6.07641 6.2006 6.8506 5.82361 7.7564C5.44662 8.66219 5.34798 9.6589 5.54017 10.6205C5.73236 11.5821 6.20674 12.4653 6.90333 13.1586C7.59993 13.8519 8.48744 14.324 9.45364 14.5153C10.4198 14.7065 11.4213 14.6084 12.3315 14.2332C13.2416 13.858 14.0195 13.2226 14.5668 12.4074C15.1141 11.5922 15.4063 10.6338 15.4063 9.6534C15.4063 8.3387 14.8815 7.07783 13.9474 6.14819C13.0133 5.21856 11.7464 4.69629 10.4254 4.69629ZM10.4254 12.8711C9.78591 12.8711 9.16081 12.6824 8.62912 12.3288C8.09743 11.9753 7.68303 11.4727 7.43832 10.8848C7.19361 10.2968 7.12958 9.64983 7.25433 9.02566C7.37909 8.40148 7.68702 7.82814 8.13918 7.37814C8.59134 6.92813 9.16744 6.62168 9.79461 6.49752C10.4218 6.37336 11.0719 6.43708 11.6626 6.68063C12.2534 6.92417 12.7584 7.33659 13.1136 7.86574C13.4689 8.39489 13.6585 9.017 13.6585 9.6534C13.6585 10.5068 13.3179 11.3252 12.7115 11.9287C12.1052 12.5321 11.2828 12.8711 10.4254 12.8711Z" fill="white"/>
<path d="M15.6038 5.65855C16.2466 5.65855 16.7677 5.13993 16.7677 4.50017C16.7677 3.86042 16.2466 3.3418 15.6038 3.3418C14.9609 3.3418 14.4398 3.86042 14.4398 4.50017C14.4398 5.13993 14.9609 5.65855 15.6038 5.65855Z" fill="white"/>
</svg>
